<?xml version="1.0" encoding="UTF-8"?>
<svg xmlns="http://www.w3.org/2000/svg" width="172" height="40" viewBox="0 0 172 40" fill="none">
  <path d="M18.5863 22.9583L2.73627 14.0267C2.65613 13.978 2.58779 13.9117 2.53623 13.8329C2.48467 13.754 2.4512 13.6644 2.43827 13.5708C2.42534 13.4772 2.43328 13.3818 2.4615 13.2916C2.48972 13.2015 2.53752 13.1189 2.60139 13.0498C2.99767 12.6493 3.48267 12.35 4.01617 12.1768C4.54967 12.0036 5.11631 11.9615 5.66913 12.0539L11.0737 12.9578L12.3002 11.7209C12.5466 11.4722 12.8805 11.3325 13.2287 11.3325C13.5768 11.3325 13.9108 11.4722 14.1572 11.7209C14.3845 11.9533 14.5192 12.2623 14.5354 12.5888C14.5516 12.9153 14.4482 13.2364 14.245 13.4907L18.0467 14.125L19.4018 12.758C19.5217 12.6258 19.6668 12.5195 19.8284 12.4455C19.99 12.3715 20.1647 12.3314 20.3421 12.3275C20.5194 12.3236 20.6957 12.3561 20.8603 12.4229C21.0249 12.4898 21.1744 12.5896 21.2999 12.7164C21.4253 12.8433 21.524 12.9945 21.5901 13.1609C21.6562 13.3274 21.6883 13.5056 21.6845 13.6849C21.6807 13.8643 21.641 14.0409 21.5678 14.2043C21.4946 14.3677 21.3895 14.5145 21.2588 14.6357L21.2337 14.661L26.0047 15.4603L28.9281 12.5011L19.9946 3.46801C17.7977 1.24743 14.8184 0 11.7121 0C8.6057 0 5.62648 1.24743 3.42949 3.46801C1.23359 5.68896 0 8.70088 0 11.8414C0 14.9819 1.23359 17.9938 3.42949 20.2147L12.3661 29.251L18.5863 22.9583Z" fill="#3685FB"></path>
  <path d="M10.9701 18.6667L6.4375 23.253L12.366 29.2476L18.5861 22.958L10.9701 18.6667Z" fill="#44D7B6"></path>
  <path d="M42.5666 3.46773C40.3701 1.24735 37.3914 0 34.2855 0C31.1797 0 28.201 1.24735 26.0045 3.46773L15.8289 13.7537L18.0466 14.1248L19.4017 12.7577C19.5216 12.6255 19.6667 12.5192 19.8283 12.4453C19.9899 12.3713 20.1646 12.3311 20.3419 12.3272C20.5193 12.3234 20.6956 12.3558 20.8602 12.4227C21.0248 12.4895 21.1743 12.5893 21.2997 12.7162C21.4252 12.843 21.5239 12.9942 21.59 13.1606C21.6561 13.3271 21.6882 13.5053 21.6844 13.6847C21.6805 13.864 21.6408 14.0407 21.5677 14.2041C21.4945 14.3675 21.3894 14.5142 21.2586 14.6354L21.2335 14.6608L26.0045 15.46L29.4079 12.0156C31.4818 9.9196 34.0864 8.44148 36.9361 7.74323C37.1287 7.69644 37.3299 7.7004 37.5206 7.75475C37.7112 7.8091 37.8849 7.912 38.025 8.05363C38.165 8.19525 38.2668 8.37086 38.3206 8.56363C38.3743 8.75641 38.3782 8.95991 38.3319 9.15465C37.6414 12.0362 36.1796 14.6698 34.1067 16.7668L30.694 20.2145L31.4844 25.0387L31.5095 25.0133C31.7592 24.7818 32.0876 24.6568 32.4262 24.6642C32.7649 24.6716 33.0876 24.8109 33.3271 25.0531C33.5666 25.2953 33.7044 25.6216 33.7118 25.964C33.7191 26.3065 33.5954 26.6385 33.3665 26.891L32.0145 28.2612L32.3815 30.5036L42.554 20.2145C44.7516 17.9952 45.9874 14.9842 45.9898 11.8437C45.9921 8.70323 44.7608 5.69037 42.5666 3.46773Z" fill="#44D7B6"></path>
  <path d="M23.2912 27.7156L17.0711 34.0052L22.9995 39.9997L27.5353 35.4166L23.2912 27.7156Z" fill="#44D7B6"></path>
  <path d="M73.856 18.4282C74.7678 19.1002 75.4996 19.9642 76.0515 21.0202C76.6034 22.0522 76.8793 23.1802 76.8793 24.4042C76.8793 25.4602 76.6754 26.4442 76.2675 27.3562C75.8835 28.2682 75.3437 29.0722 74.6478 29.7682C73.976 30.4642 73.1721 31.0162 72.2363 31.4242C71.3245 31.8082 70.3528 32.0002 69.321 32.0002H64.0301L61.6906 27.6082H69.393C69.7289 27.6082 70.0408 27.5242 70.3288 27.3562C70.6407 27.1642 70.9046 26.9362 71.1206 26.6722C71.3365 26.4082 71.5045 26.1082 71.6245 25.7722C71.7684 25.4362 71.8404 25.1002 71.8404 24.7642C71.8404 24.4042 71.7684 24.0562 71.6245 23.7202C71.5045 23.3602 71.3245 23.0482 71.0846 22.7842C70.8446 22.5202 70.5687 22.3042 70.2568 22.1362C69.9688 21.9682 69.6569 21.8842 69.321 21.8842H60.2869V32.0002H55.248V6.76416H67.5214C68.5531 6.76416 69.5249 6.96816 70.4367 7.37616C71.3725 7.76016 72.1764 8.30016 72.8482 8.99616C73.5441 9.66816 74.0839 10.4722 74.4679 11.4082C74.8758 12.3202 75.0797 13.2922 75.0797 14.3242C75.0797 15.0922 74.9717 15.8242 74.7558 16.5202C74.5398 17.1922 74.2399 17.8282 73.856 18.4282ZM67.5214 16.8802C67.8573 16.8802 68.1692 16.8082 68.4572 16.6642C68.7691 16.4962 69.045 16.2922 69.285 16.0522C69.5249 15.7882 69.7049 15.4882 69.8249 15.1522C69.9688 14.7922 70.0408 14.4202 70.0408 14.0362C70.0408 13.6522 69.9688 13.2922 69.8249 12.9562C69.7049 12.5962 69.5249 12.2842 69.285 12.0202C69.045 11.7562 68.7691 11.5522 68.4572 11.4082C68.1692 11.2402 67.8573 11.1562 67.5214 11.1562H60.2869V16.8802H67.5214Z" fill="white"></path>
  <path d="M87.3345 13.7122C88.6062 13.7122 89.8059 13.9642 90.9337 14.4682C92.0615 14.9482 93.0452 15.6082 93.8851 16.4482C94.7249 17.2882 95.3847 18.2722 95.8646 19.4002C96.3685 20.5282 96.6205 21.7402 96.6205 23.0362C96.6205 23.7322 96.5485 24.4042 96.4045 25.0522L96.3685 25.1242H87.2265L84.923 21.4522H91.7615C91.4256 20.4442 90.8617 19.6162 90.0699 18.9682C89.3021 18.3202 88.3903 17.9962 87.3345 17.9962C86.6866 17.9962 86.0748 18.1282 85.4989 18.3922C84.923 18.6562 84.4191 19.0162 83.9872 19.4722C83.5793 19.9042 83.2554 20.4322 83.0154 21.0562C82.7755 21.6562 82.6555 22.3162 82.6555 23.0362C82.6555 23.5882 82.7635 24.1642 82.9794 24.7642C83.1954 25.3402 83.5073 25.8682 83.9152 26.3482C84.3231 26.8282 84.815 27.2362 85.3909 27.5722C85.9668 27.8842 86.6146 28.0402 87.3345 28.0402C87.9823 28.0402 88.5702 27.9562 89.0981 27.7882C89.65 27.5962 90.1659 27.1882 90.6458 26.5642L90.6818 26.5282L90.7537 26.5642L94.9288 28.4002L94.8568 28.4722C93.993 29.6722 92.8893 30.6082 91.5456 31.2802C90.2259 31.9522 88.8222 32.2882 87.3345 32.2882C86.0388 32.2882 84.815 32.0482 83.6633 31.5682C82.5355 31.0882 81.5517 30.4282 80.7119 29.5882C79.8721 28.7482 79.2003 27.7642 78.6964 26.6362C78.2165 25.5082 77.9765 24.3082 77.9765 23.0362C77.9765 21.7402 78.2165 20.5282 78.6964 19.4002C79.2003 18.2722 79.8721 17.2882 80.7119 16.4482C81.5517 15.6082 82.5355 14.9482 83.6633 14.4682C84.815 13.9642 86.0388 13.7122 87.3345 13.7122Z" fill="white"></path>
  <path d="M94.9449 32.0002L99.7678 25.4482L104.159 27.4642L100.812 32.0002H94.9449ZM107.398 23.0722L114.021 32.0002H108.118V31.9642L101.567 23.1082L94.9808 14.0002H100.812L104.447 20.1202L108.118 14.0002H114.021L113.949 14.0362L107.398 23.0722Z" fill="white"></path>
  <path d="M125.999 13.7122C127.295 13.7122 128.518 13.9642 129.67 14.4682C130.822 14.9482 131.818 15.6202 132.658 16.4842C133.521 17.3242 134.193 18.3082 134.673 19.4362C135.177 20.5642 135.429 21.7762 135.429 23.0722C135.429 24.3922 135.177 25.6282 134.673 26.7802C134.193 27.9322 133.521 28.9402 132.658 29.8042C131.818 30.6442 130.822 31.3162 129.67 31.8202C128.518 32.3002 127.295 32.5402 125.999 32.5402C124.223 32.5402 122.748 32.0602 121.572 31.1002V31.0642L123.372 27.7522L123.408 27.7882C124.055 28.0762 124.715 28.2202 125.387 28.2202C126.083 28.2202 126.743 28.0882 127.367 27.8242C127.991 27.5602 128.53 27.2002 128.986 26.7442C129.466 26.2642 129.838 25.7122 130.102 25.0882C130.366 24.4642 130.498 23.7922 130.498 23.0722C130.498 22.3762 130.366 21.7282 130.102 21.1282C129.838 20.5042 129.466 19.9642 128.986 19.5082C128.53 19.0522 127.991 18.6922 127.367 18.4282C126.743 18.1642 126.083 18.0322 125.387 18.0322C124.667 18.0322 123.995 18.1642 123.372 18.4282C122.772 18.6922 122.244 19.0522 121.788 19.5082C121.332 19.9642 120.972 20.5042 120.708 21.1282C120.444 21.7282 120.312 22.3762 120.312 23.0722V39.2002H115.453V14.0002H120.312V16.4482C121.608 14.6242 123.504 13.7122 125.999 13.7122Z" fill="white"></path>
  <path d="M146.243 13.7122C147.515 13.7122 148.715 13.9642 149.843 14.4682C150.97 14.9482 151.954 15.6082 152.794 16.4482C153.634 17.2882 154.294 18.2722 154.774 19.4002C155.278 20.5282 155.529 21.7402 155.529 23.0362C155.529 23.7322 155.457 24.4042 155.314 25.0522L155.278 25.1242H146.136L143.832 21.4522H150.671C150.335 20.4442 149.771 19.6162 148.979 18.9682C148.211 18.3202 147.299 17.9962 146.243 17.9962C145.596 17.9962 144.984 18.1282 144.408 18.3922C143.832 18.6562 143.328 19.0162 142.896 19.4722C142.488 19.9042 142.164 20.4322 141.924 21.0562C141.684 21.6562 141.565 22.3162 141.565 23.0362C141.565 23.5882 141.672 24.1642 141.888 24.7642C142.104 25.3402 142.416 25.8682 142.824 26.3482C143.232 26.8282 143.724 27.2362 144.3 27.5722C144.876 27.8842 145.524 28.0402 146.243 28.0402C146.891 28.0402 147.479 27.9562 148.007 27.7882C148.559 27.5962 149.075 27.1882 149.555 26.5642L149.591 26.5282L149.663 26.5642L153.838 28.4002L153.766 28.4722C152.902 29.6722 151.798 30.6082 150.455 31.2802C149.135 31.9522 147.731 32.2882 146.243 32.2882C144.948 32.2882 143.724 32.0482 142.572 31.5682C141.445 31.0882 140.461 30.4282 139.621 29.5882C138.781 28.7482 138.109 27.7642 137.605 26.6362C137.125 25.5082 136.886 24.3082 136.886 23.0362C136.886 21.7402 137.125 20.5282 137.605 19.4002C138.109 18.2722 138.781 17.2882 139.621 16.4482C140.461 15.6082 141.445 14.9482 142.572 14.4682C143.724 13.9642 144.948 13.7122 146.243 13.7122Z" fill="white"></path>
  <path d="M172 14.7202L171.568 15.4402L169.733 18.7162L169.697 18.6802C168.905 18.2242 168.053 17.9962 167.141 17.9962C166.517 17.9962 165.929 18.1042 165.378 18.3202C164.826 18.5122 164.334 18.8002 163.902 19.1842C163.47 19.5442 163.098 19.9762 162.786 20.4802C162.498 20.9842 162.306 21.5242 162.21 22.1002V32.0002H157.315V14.0002H162.21V16.3402C163.482 14.5882 165.342 13.7122 167.789 13.7122C169.229 13.7122 170.62 14.0482 171.964 14.7202H172Z" fill="white"></path>
</svg>
